<?xml version="1.0" encoding="UTF-8" standalone="no"?>
<!DOCTYPE svg PUBLIC "-//W3C//DTD SVG 1.1//EN" "http://www.w3.org/Graphics/SVG/1.1/DTD/svg11.dtd">
<svg version="1.1" xmlns="http://www.w3.org/2000/svg" xmlns:xlink="http://www.w3.org/1999/xlink" preserveAspectRatio="xMidYMid meet" viewBox="0 0 640 640" width="300" height="300"><defs><path d="M341.96 89.45C332.54 94.5 328.99 106.22 334.03 115.64C339.08 125.06 350.8 128.61 360.22 123.57C360.58 123.37 360.95 123.16 361.3 122.94C375.48 114.74 446.34 73.76 573.9 0L496.64 0C414.14 47.71 362.58 77.53 341.96 89.45Z" id="e2Ch6wLss"></path><path d="M495.75 90C486.48 95.35 483.3 107.19 488.64 116.46C493.98 125.73 505.83 128.91 515.1 123.57C523.42 118.79 565.06 94.88 640 51.84L640 7.24C563.07 51.38 514.98 78.97 495.75 90Z" id="b5bkjLXXOl"></path><path d="M436.22 213.73C426.8 218.77 423.25 230.5 428.29 239.92C433.34 249.34 445.06 252.89 454.48 247.84C454.84 247.65 455.21 247.44 455.56 247.21C467.86 240.1 529.34 204.53 640 140.51L640 95.81C531.31 158.7 463.39 198.01 436.22 213.73Z" id="cf1zr7EE5"></path><path d="M544.89 241.2C535.42 246.15 531.76 257.84 536.71 267.31C541.66 276.78 553.34 280.44 562.81 275.49C563.3 275.23 563.78 274.96 564.23 274.67C569.28 271.74 594.54 257.13 640 230.82L640 186.12C589.27 215.49 557.57 233.86 544.89 241.2Z" id="e1jxIKESW"></path><path d="M365.94 27.41C369.34 27.42 372.68 26.54 375.62 24.84C378.51 23.19 392.95 14.91 418.95 0C376.6 0 353.08 0 348.37 0C345.75 5.69 346.04 12.3 349.16 17.73C352.62 23.73 359.02 27.42 365.94 27.41Z" id="a1gPgso7Nk"></path><path d="M444.68 119.5C433.78 125.79 427.72 129.28 426.51 129.98C417.26 135.32 414.08 147.16 419.43 156.41C424.77 165.67 436.6 168.84 445.86 163.5C445.86 163.5 445.86 163.5 445.86 163.5C456.76 157.2 462.81 153.7 464.02 153C473.37 147.83 476.76 136.06 471.58 126.71C466.41 117.36 454.64 113.98 445.29 119.15C445.21 119.2 445.01 119.32 444.68 119.5Z" id="d1P9RfAdvw"></path><path d="M198 38.55C202.45 35.98 224.7 23.13 264.75 0L187.37 0C182.14 3.02 179.23 4.69 178.65 5.03C169.4 10.37 166.23 22.2 171.57 31.45C176.91 40.71 188.74 43.88 198 38.55Z" id="a9Xfpm0MP"></path><path d="M30.5 45.9C35.8 42.84 62.3 27.54 109.99 0L32.61 0C19.74 7.43 12.59 11.56 11.16 12.38C1.91 17.72 -1.26 29.55 4.08 38.8C9.42 48.07 21.25 51.24 30.5 45.9Z" id="a8lJzcg1Q"></path><path d="M198.98 82.65C189.48 87.55 185.74 99.22 190.64 108.73C195.53 118.23 207.21 121.97 216.71 117.07C217.27 116.78 217.81 116.45 218.33 116.1C229.06 109.87 314.91 60.04 325.64 53.81C335.11 48.86 338.77 37.17 333.82 27.7C328.87 18.24 317.18 14.57 307.72 19.52C307.23 19.78 306.75 20.05 306.3 20.34C284.83 32.81 209.71 76.42 198.98 82.65Z" id="a2xLNZEfcn"></path><path d="M505.94 352.18C496.47 357.15 492.82 368.85 497.79 378.32C502.76 387.79 514.46 391.43 523.93 386.47C524.41 386.21 524.9 385.93 525.35 385.64C532.99 381.21 571.21 359.06 640 319.19L640 274.44C568.5 315.9 523.81 341.81 505.94 352.18Z" id="aGB8ZxvUh"></path><path d="M388.51 329.83C379.25 335.18 376.08 347.01 381.42 356.27C386.76 365.53 398.6 368.71 407.86 363.37C418.5 357.24 503.62 308.23 514.26 302.11C523.52 296.76 526.69 284.93 521.35 275.67C516.01 266.41 504.17 263.23 494.91 268.57C473.63 280.83 399.15 323.71 388.51 329.83Z" id="c2y9DOwmT3"></path></defs><g><g><g><g><use xlink:href="#e2Ch6wLss" opacity="1" fill="#6c737a" fill-opacity="1"></use><g><use xlink:href="#e2Ch6wLss" opacity="1" fill-opacity="0" stroke="#000000" stroke-width="1" stroke-opacity="0"></use></g></g><g><use xlink:href="#b5bkjLXXOl" opacity="1" fill="#d5d7d9" fill-opacity="1"></use><g><use xlink:href="#b5bkjLXXOl" opacity="1" fill-opacity="0" stroke="#000000" stroke-width="1" stroke-opacity="0"></use></g></g><g><use xlink:href="#cf1zr7EE5" opacity="1" fill="#d5d7d9" fill-opacity="1"></use><g><use xlink:href="#cf1zr7EE5" opacity="1" fill-opacity="0" stroke="#000000" stroke-width="1" stroke-opacity="0"></use></g></g><g><use xlink:href="#e1jxIKESW" opacity="1" fill="#6c737a" fill-opacity="1"></use><g><use xlink:href="#e1jxIKESW" opacity="1" fill-opacity="0" stroke="#000000" stroke-width="1" stroke-opacity="0"></use></g></g><g><use xlink:href="#a1gPgso7Nk" opacity="1" fill="#6c737a" fill-opacity="1"></use><g><use xlink:href="#a1gPgso7Nk" opacity="1" fill-opacity="0" stroke="#000000" stroke-width="1" stroke-opacity="0"></use></g></g><g><use xlink:href="#d1P9RfAdvw" opacity="1" fill="#6c737a" fill-opacity="1"></use><g><use xlink:href="#d1P9RfAdvw" opacity="1" fill-opacity="0" stroke="#000000" stroke-width="1" stroke-opacity="0"></use></g></g><g><use xlink:href="#a9Xfpm0MP" opacity="1" fill="#d5d7d9" fill-opacity="1"></use><g><use xlink:href="#a9Xfpm0MP" opacity="1" fill-opacity="0" stroke="#000000" stroke-width="1" stroke-opacity="0"></use></g></g><g><use xlink:href="#a8lJzcg1Q" opacity="1" fill="#6c737a" fill-opacity="1"></use><g><use xlink:href="#a8lJzcg1Q" opacity="1" fill-opacity="0" stroke="#000000" stroke-width="1" stroke-opacity="0"></use></g></g><g><use xlink:href="#a2xLNZEfcn" opacity="1" fill="#6c737a" fill-opacity="1"></use><g><use xlink:href="#a2xLNZEfcn" opacity="1" fill-opacity="0" stroke="#000000" stroke-width="1" stroke-opacity="0"></use></g></g><g><use xlink:href="#aGB8ZxvUh" opacity="1" fill="#d5d7d9" fill-opacity="1"></use><g><use xlink:href="#aGB8ZxvUh" opacity="1" fill-opacity="0" stroke="#000000" stroke-width="1" stroke-opacity="0"></use></g></g><g><use xlink:href="#c2y9DOwmT3" opacity="1" fill="#6c737a" fill-opacity="1"></use><g><use xlink:href="#c2y9DOwmT3" opacity="1" fill-opacity="0" stroke="#000000" stroke-width="1" stroke-opacity="0"></use></g></g></g></g></g></svg>