<?xml version="1.0" encoding="UTF-8" standalone="no"?>
<!DOCTYPE svg PUBLIC "-//W3C//DTD SVG 1.1//EN" "http://www.w3.org/Graphics/SVG/1.1/DTD/svg11.dtd">
<svg version="1.1" xmlns="http://www.w3.org/2000/svg" xmlns:xlink="http://www.w3.org/1999/xlink" preserveAspectRatio="xMidYMid meet" viewBox="0 0 640 640" width="300" height="300"><defs><path d="M299.53 550.55C308.95 545.5 312.49 533.78 307.45 524.36C302.41 514.94 290.68 511.39 281.26 516.43C280.91 516.63 280.54 516.84 280.18 517.06C266.01 525.26 195.14 566.24 67.58 640L144.85 640C227.34 592.29 278.9 562.47 299.53 550.55Z" id="d8A3qFIHv"></path><path d="M145.73 550C155 544.65 158.19 532.81 152.84 523.54C147.5 514.27 135.66 511.09 126.39 516.43C118.06 521.21 76.43 545.12 1.48 588.16L1.48 632.76C78.42 588.62 126.5 561.03 145.73 550Z" id="a1wYR2I4ml"></path><path d="M205.27 426.27C214.69 421.23 218.24 409.5 213.19 400.08C208.15 390.66 196.42 387.11 187 392.16C186.65 392.35 186.28 392.56 185.92 392.79C173.63 399.9 112.15 435.47 1.48 499.49L1.48 544.19C110.17 481.3 178.1 441.99 205.27 426.27Z" id="k4ChXxbif"></path><path d="M96.6 398.8C106.07 393.85 109.73 382.16 104.78 372.69C99.83 363.22 88.14 359.56 78.67 364.51C78.19 364.77 77.7 365.04 77.25 365.33C72.2 368.26 46.95 382.87 1.48 409.18L1.48 453.88C52.21 424.51 83.92 406.14 96.6 398.8Z" id="hB55REOrc"></path><path d="M275.54 612.59C272.15 612.58 268.81 613.46 265.87 615.16C262.98 616.81 248.53 625.09 222.53 640C264.88 640 288.41 640 293.11 640C295.74 634.31 295.44 627.7 292.32 622.27C288.86 616.27 282.46 612.58 275.54 612.59Z" id="l4zHKQUpDz"></path><path d="M196.81 520.5C207.71 514.21 213.76 510.72 214.97 510.02C224.23 504.68 227.4 492.84 222.06 483.59C216.72 474.33 204.88 471.16 195.63 476.5C195.63 476.5 195.63 476.5 195.63 476.5C184.73 482.8 178.67 486.3 177.46 487C168.11 492.17 164.73 503.94 169.9 513.29C175.07 522.64 186.84 526.02 196.19 520.85C196.27 520.8 196.48 520.68 196.81 520.5Z" id="b3MOXhuWh0"></path><path d="M443.49 601.45C439.04 604.02 416.78 616.87 376.73 640L454.11 640C459.34 636.98 462.25 635.31 462.83 634.97C472.08 629.63 475.25 617.8 469.91 608.55C464.57 599.29 452.74 596.12 443.49 601.45Z" id="nmL7hpQEU"></path><path d="M610.98 594.1C605.68 597.16 579.19 612.46 531.49 640L608.87 640C621.75 632.57 628.9 628.44 630.33 627.62C639.58 622.28 642.75 610.45 637.41 601.2C632.06 591.93 620.23 588.76 610.98 594.1Z" id="b1CNyfJJXq"></path><path d="M442.5 557.35C452.01 552.45 455.74 540.78 450.85 531.27C445.95 521.77 434.28 518.03 424.77 522.93C424.22 523.22 423.68 523.55 423.16 523.9C412.43 530.13 326.57 579.96 315.84 586.19C306.37 591.14 302.71 602.83 307.66 612.3C312.61 621.76 324.3 625.43 333.77 620.48C334.25 620.22 334.74 619.95 335.19 619.66C356.65 607.19 431.77 563.58 442.5 557.35Z" id="a1KDREWZ6l"></path><path d="M135.55 287.82C145.01 282.85 148.66 271.15 143.69 261.68C138.73 252.21 127.02 248.57 117.55 253.53C117.07 253.79 116.59 254.07 116.14 254.36C108.49 258.79 70.28 280.94 1.48 320.81L1.48 365.56C72.98 324.1 117.67 298.19 135.55 287.82Z" id="j1GbhVknQN"></path><path d="M252.97 310.17C262.23 304.82 265.41 292.99 260.06 283.73C254.72 274.47 242.88 271.29 233.63 276.63C222.99 282.76 137.87 331.77 127.23 337.89C117.97 343.24 114.79 355.07 120.13 364.33C125.48 373.59 137.31 376.77 146.57 371.43C167.85 359.17 242.33 316.29 252.97 310.17Z" id="c2Ddqfz3Qn"></path></defs><g><g><g><g><use xlink:href="#d8A3qFIHv" opacity="1" fill="#6c737a" fill-opacity="1"></use><g><use xlink:href="#d8A3qFIHv" opacity="1" fill-opacity="0" stroke="#000000" stroke-width="1" stroke-opacity="0"></use></g></g><g><use xlink:href="#a1wYR2I4ml" opacity="1" fill="#d5d7d9" fill-opacity="1"></use><g><use xlink:href="#a1wYR2I4ml" opacity="1" fill-opacity="0" stroke="#000000" stroke-width="1" stroke-opacity="0"></use></g></g><g><use xlink:href="#k4ChXxbif" opacity="1" fill="#d5d7d9" fill-opacity="1"></use><g><use xlink:href="#k4ChXxbif" opacity="1" fill-opacity="0" stroke="#000000" stroke-width="1" stroke-opacity="0"></use></g></g><g><use xlink:href="#hB55REOrc" opacity="1" fill="#6c737a" fill-opacity="1"></use><g><use xlink:href="#hB55REOrc" opacity="1" fill-opacity="0" stroke="#000000" stroke-width="1" stroke-opacity="0"></use></g></g><g><use xlink:href="#l4zHKQUpDz" opacity="1" fill="#6c737a" fill-opacity="1"></use><g><use xlink:href="#l4zHKQUpDz" opacity="1" fill-opacity="0" stroke="#000000" stroke-width="1" stroke-opacity="0"></use></g></g><g><use xlink:href="#b3MOXhuWh0" opacity="1" fill="#6c737a" fill-opacity="1"></use><g><use xlink:href="#b3MOXhuWh0" opacity="1" fill-opacity="0" stroke="#000000" stroke-width="1" stroke-opacity="0"></use></g></g><g><use xlink:href="#nmL7hpQEU" opacity="1" fill="#d5d7d9" fill-opacity="1"></use><g><use xlink:href="#nmL7hpQEU" opacity="1" fill-opacity="0" stroke="#000000" stroke-width="1" stroke-opacity="0"></use></g></g><g><use xlink:href="#b1CNyfJJXq" opacity="1" fill="#6c737a" fill-opacity="1"></use><g><use xlink:href="#b1CNyfJJXq" opacity="1" fill-opacity="0" stroke="#000000" stroke-width="1" stroke-opacity="0"></use></g></g><g><use xlink:href="#a1KDREWZ6l" opacity="1" fill="#6c737a" fill-opacity="1"></use><g><use xlink:href="#a1KDREWZ6l" opacity="1" fill-opacity="0" stroke="#000000" stroke-width="1" stroke-opacity="0"></use></g></g><g><use xlink:href="#j1GbhVknQN" opacity="1" fill="#d5d7d9" fill-opacity="1"></use><g><use xlink:href="#j1GbhVknQN" opacity="1" fill-opacity="0" stroke="#000000" stroke-width="1" stroke-opacity="0"></use></g></g><g><use xlink:href="#c2Ddqfz3Qn" opacity="1" fill="#6c737a" fill-opacity="1"></use><g><use xlink:href="#c2Ddqfz3Qn" opacity="1" fill-opacity="0" stroke="#000000" stroke-width="1" stroke-opacity="0"></use></g></g></g></g></g></svg>